<?xml version="1.0" encoding="utf-8"?>
<!-- Generator: Adobe Illustrator 22.1.0, SVG Export Plug-In . SVG Version: 6.00 Build 0)  -->
<svg version="1.1" xmlns="http://www.w3.org/2000/svg" xmlns:xlink="http://www.w3.org/1999/xlink" x="0px" y="0px"
	 viewBox="0 0 24 24" style="enable-background:new 0 0 24 24;" xml:space="preserve">
<style type="text/css">
	.st0{display:none;}
	.st1{display:inline;fill:none;}
	.st2{display:inline;}
	.st3{fill:none;}
</style>
<g id="Layer_1" class="st0">
	<path class="st1" d="M0,0h24v24H0V0z"/>
	<path class="st2" d="M16,1H4C2.9,1,2,1.9,2,3v14h2V3h12V1z M15,5l6,6v10c0,1.1-0.9,2-2,2H8c-1.1,0-2-0.9-2-2L6,7c0-1.1,0.9-2,2-2
		H15z M14,12h5.5L14,6.5V12z"/>
</g>
<g id="Layer_2">
	<path class="st3" d="M0,0h24v24H0V0z"/>
	<path d="M16,1H4C2.9,1,2,1.9,2,3v14h2V3h12V1z"/>
	<path d="M19,5H8C6.9,5,6,5.9,6,7v14c0,1.1,0.9,2,2,2h11c1.1,0,2-0.9,2-2V7C21,5.9,20.1,5,19,5z M19,21H8V7h11V21z"/>
</g>
</svg>
