<?xml version="1.0" encoding="utf-8"?>
<!-- Generator: Adobe Illustrator 22.1.0, SVG Export Plug-In . SVG Version: 6.00 Build 0)  -->
<svg version="1.1" xmlns="http://www.w3.org/2000/svg" xmlns:xlink="http://www.w3.org/1999/xlink" x="0px" y="0px"
	 viewBox="0 0 128 128" style="enable-background:new 0 0 128 128;" xml:space="preserve">
<style type="text/css">
	.st0{fill:#1675D1;}
	.st1{display:none;}
	.st2{display:inline;fill:none;}
	.st3{display:inline;fill:#FFFFFF;}
	.st4{fill:none;}
	.st5{fill:#FFFFFF;}
</style>
<g id="Layer_1">
	<g>
		<path class="st0" d="M118,128H10c-5.5,0-10-4.5-10-10V10C0,4.5,4.5,0,10,0h108c5.5,0,10,4.5,10,10v108
			C128,123.5,123.5,128,118,128z"/>
	</g>
</g>
<g id="Layer_2" class="st1">
	<path class="st2" d="M0,0h128v128H0V0z"/>
	<path class="st3" d="M16,96h96V85.3H16V96z M16,69.3h96V58.7H16V69.3z M16,32v10.7h96V32H16z"/>
</g>
<g id="Layer_3">
	<g>
		<path class="st4" d="M10,10h108v108H10V10z"/>
		<path class="st5" d="M82,14.5H28c-4.9,0-9,4-9,9v63h9v-63h54V14.5z"/>
		<path class="st5" d="M95.5,32.5H46c-5,0-9,4-9,9v63c0,5,4,9,9,9h49.5c5,0,9-4,9-9v-63C104.5,36.6,100.5,32.5,95.5,32.5z
			 M95.5,104.5H46v-63h49.5V104.5z"/>
	</g>
</g>
</svg>
